<mxfile host="65bd71144e">
    <diagram id="RjojB0_8PJp6i-Vo-9bG" name="Page-1">
        <mxGraphModel dx="592" dy="470" grid="1" gridSize="10" guides="1" tooltips="1" connect="1" arrows="1" fold="1" page="1" pageScale="1" pageWidth="850" pageHeight="1100" background="#ffffff" math="0" shadow="0">
            <root>
                <mxCell id="0"/>
                <mxCell id="1" parent="0"/>
                <mxCell id="2" value="" style="shape=internalStorage;whiteSpace=wrap;html=1;backgroundOutline=1;dx=220;dy=60;fillColor=none;strokeColor=#000000;fontColor=#000000;" parent="1" vertex="1">
                    <mxGeometry x="150" y="600" width="430" height="550" as="geometry"/>
                </mxCell>
                <mxCell id="3" value="Atrributes" style="text;html=1;strokeColor=#000000;fillColor=none;align=center;verticalAlign=middle;whiteSpace=wrap;rounded=0;fontColor=#000000;" parent="1" vertex="1">
                    <mxGeometry x="225" y="620" width="60" height="30" as="geometry"/>
                </mxCell>
                <mxCell id="4" value="Methods" style="text;html=1;strokeColor=#000000;fillColor=none;align=center;verticalAlign=middle;whiteSpace=wrap;rounded=0;fontColor=#000000;" parent="1" vertex="1">
                    <mxGeometry x="430" y="620" width="55" height="30" as="geometry"/>
                </mxCell>
                <mxCell id="5" value="" style="endArrow=none;html=1;fillColor=none;strokeColor=#000000;fontColor=#000000;" parent="1" target="2" edge="1">
                    <mxGeometry width="50" height="50" relative="1" as="geometry">
                        <mxPoint x="150" y="880" as="sourcePoint"/>
                        <mxPoint x="200" y="830" as="targetPoint"/>
                        <Array as="points">
                            <mxPoint x="580" y="880"/>
                        </Array>
                    </mxGeometry>
                </mxCell>
                <mxCell id="6" value="" style="endArrow=none;html=1;fillColor=none;strokeColor=#000000;fontColor=#000000;" parent="1" edge="1">
                    <mxGeometry width="50" height="50" relative="1" as="geometry">
                        <mxPoint x="150" y="910" as="sourcePoint"/>
                        <mxPoint x="580" y="910" as="targetPoint"/>
                        <Array as="points">
                            <mxPoint x="580" y="910"/>
                        </Array>
                    </mxGeometry>
                </mxCell>
                <mxCell id="7" value="Responsibi;ity" style="text;html=1;strokeColor=#000000;fillColor=none;align=center;verticalAlign=middle;whiteSpace=wrap;rounded=0;fontColor=#000000;" parent="1" vertex="1">
                    <mxGeometry x="197.5" y="880" width="115" height="30" as="geometry"/>
                </mxCell>
                <mxCell id="8" value="Collaborator" style="text;html=1;strokeColor=#000000;fillColor=none;align=center;verticalAlign=middle;whiteSpace=wrap;rounded=0;fontColor=#000000;" parent="1" vertex="1">
                    <mxGeometry x="430" y="880" width="115" height="30" as="geometry"/>
                </mxCell>
                <mxCell id="9" value="&lt;font style=&quot;font-size: 18px;&quot;&gt;-username&lt;br&gt;-password&lt;br&gt;-sessionManagement&lt;br&gt;-permissionManagement&lt;br&gt;&lt;/font&gt;" style="text;html=1;strokeColor=#000000;fillColor=none;align=left;verticalAlign=middle;whiteSpace=wrap;rounded=0;fontColor=#000000;" parent="1" vertex="1">
                    <mxGeometry x="150" y="660" width="220" height="220" as="geometry"/>
                </mxCell>
                <mxCell id="10" value="&lt;font style=&quot;font-size: 18px;&quot;&gt;+authenticateUser()&lt;br&gt;+registerUser()&lt;br&gt;+resetPassword()&lt;br&gt;+generateSession()&lt;br&gt;+validatePermissions()&lt;br&gt;&lt;/font&gt;" style="text;html=1;strokeColor=#000000;fillColor=none;align=left;verticalAlign=middle;whiteSpace=wrap;rounded=0;fontColor=#000000;" parent="1" vertex="1">
                    <mxGeometry x="370" y="660" width="210" height="220" as="geometry"/>
                </mxCell>
                <mxCell id="11" value="&lt;font style=&quot;font-size: 18px;&quot;&gt;1. authenticates user&lt;br&gt;2. registers new user&lt;br&gt;3. initiates password reset process&lt;br&gt;4. validates user session&lt;br&gt;5. validates user permission&lt;br&gt;&lt;/font&gt;" style="text;html=1;strokeColor=#000000;fillColor=none;align=left;verticalAlign=middle;whiteSpace=wrap;rounded=0;fontColor=#000000;" parent="1" vertex="1">
                    <mxGeometry x="150" y="910" width="220" height="240" as="geometry"/>
                </mxCell>
                <mxCell id="12" value="&lt;span style=&quot;font-size: 18px;&quot;&gt;-User&lt;br&gt;-User&lt;br&gt;-User&lt;br&gt;&lt;br&gt;-User&lt;br&gt;&lt;br&gt;-User&lt;br&gt;&lt;/span&gt;" style="text;html=1;strokeColor=#000000;fillColor=none;align=left;verticalAlign=middle;whiteSpace=wrap;rounded=0;fontColor=#000000;" parent="1" vertex="1">
                    <mxGeometry x="370" y="910" width="210" height="240" as="geometry"/>
                </mxCell>
            </root>
        </mxGraphModel>
    </diagram>
</mxfile>